<svg width="108" height="72" viewBox="0 0 108 72" fill="none" xmlns="http://www.w3.org/2000/svg">
<path fill-rule="evenodd" clip-rule="evenodd" d="M33.9321 9L49.0549 34.7093H55.8228L54.6319 36.7337L47.8595 36.7343L31.5452 9H33.9321Z" fill="#E11932"/>
<path fill-rule="evenodd" clip-rule="evenodd" d="M50.061 56.7041L67.5748 26.9302L64.1883 21.1731H66.5701L69.9618 26.9392L51.2571 58.7376L50.061 56.7041Z" fill="#E11932"/>
<path fill-rule="evenodd" clip-rule="evenodd" d="M29.1593 9L46.6645 38.7581H53.4317L52.2408 40.7831H45.469L26.7729 9H29.1593Z" fill="#E11932"/>
<path fill-rule="evenodd" clip-rule="evenodd" d="M81.6721 15.243H46.6266L43.2349 21.0092L42.0388 18.9763L45.4253 13.2186H82.8635L81.6721 15.243Z" fill="#E11932"/>
<path fill-rule="evenodd" clip-rule="evenodd" d="M52.4487 60.7625L72.3443 26.9397L68.9555 21.1786H71.3372L74.7266 26.9408L53.6402 62.788L52.4487 60.7625Z" fill="#E11932"/>
<path fill-rule="evenodd" clip-rule="evenodd" d="M24.3869 9L44.2755 42.8114H51.0457L49.8519 44.8398H43.0824L22 9H24.3869Z" fill="#E11932"/>
<path fill-rule="evenodd" clip-rule="evenodd" d="M84.0891 11.025L44.2589 11.0244L40.8672 16.7911L39.6711 14.7577L43.0576 9H85.28L84.0891 11.025Z" fill="#E11932"/>
<path fill-rule="evenodd" clip-rule="evenodd" d="M79.3235 19.1264L49.0518 19.127L45.6636 24.8875L44.4722 22.862L47.8627 17.0981H80.5161L79.3235 19.1264Z" fill="#E11932"/>
<path fill-rule="evenodd" clip-rule="evenodd" d="M47.6689 52.6373L62.801 26.9132L59.4145 21.1556H61.7963L65.1879 26.9217L48.865 54.6707L47.6689 52.6373Z" fill="#E11932"/>
</svg>
